<mxfile host="Electron" modified="2023-11-07T00:39:05.930Z" agent="Mozilla/5.0 (X11; Linux x86_64) AppleWebKit/537.36 (KHTML, like Gecko) draw.io/22.0.3 Chrome/114.0.5735.289 Electron/25.8.4 Safari/537.36" etag="Q_aPQ33CkfFVjbfd4ua0" version="22.0.3" type="device">
  <diagram name="Page-1" id="BeeQXuH5mpLVNXQqc5U8">
    <mxGraphModel dx="819" dy="518" grid="1" gridSize="10" guides="1" tooltips="1" connect="1" arrows="1" fold="1" page="1" pageScale="1" pageWidth="850" pageHeight="1100" math="0" shadow="0">
      <root>
        <mxCell id="0" />
        <mxCell id="1" parent="0" />
        <mxCell id="7uoHD_4SpCBYZxMYRfOL-58" value="" style="rounded=0;whiteSpace=wrap;html=1;fontFamily=Helvetica;fontSize=11;fontColor=#292929;fillColor=none;dashed=1;dashPattern=8 8;spacing=0;spacingTop=-2;" vertex="1" parent="1">
          <mxGeometry x="190" y="486" width="340" height="120" as="geometry" />
        </mxCell>
        <mxCell id="7uoHD_4SpCBYZxMYRfOL-3" value="Broker" style="sketch=0;outlineConnect=0;fontColor=#292929;gradientColor=none;fillColor=#19916E;strokeColor=none;dashed=0;verticalLabelPosition=bottom;verticalAlign=top;align=center;html=1;fontSize=12;fontStyle=0;aspect=fixed;pointerEvents=1;shape=mxgraph.aws4.mqtt_protocol;" vertex="1" parent="1">
          <mxGeometry x="210" y="497" width="78" height="78" as="geometry" />
        </mxCell>
        <mxCell id="7uoHD_4SpCBYZxMYRfOL-11" style="edgeStyle=orthogonalEdgeStyle;rounded=0;orthogonalLoop=1;jettySize=auto;html=1;strokeWidth=3;strokeColor=#636363;endArrow=classic;endFill=1;startArrow=none;startFill=0;fontColor=#292929;" edge="1" parent="1" source="7uoHD_4SpCBYZxMYRfOL-5" target="7uoHD_4SpCBYZxMYRfOL-3">
          <mxGeometry relative="1" as="geometry" />
        </mxCell>
        <mxCell id="7uoHD_4SpCBYZxMYRfOL-26" value="Pub/Sub &lt;br&gt;messages" style="edgeLabel;html=1;align=center;verticalAlign=middle;resizable=0;points=[];fontSize=11;fontFamily=Helvetica;fontColor=#292929;" vertex="1" connectable="0" parent="7uoHD_4SpCBYZxMYRfOL-11">
          <mxGeometry x="0.493" y="1" relative="1" as="geometry">
            <mxPoint x="33" y="-19" as="offset" />
          </mxGeometry>
        </mxCell>
        <mxCell id="7uoHD_4SpCBYZxMYRfOL-5" value="Devices" style="sketch=0;outlineConnect=0;fontColor=#292929;gradientColor=none;fillColor=#19916E;strokeColor=none;dashed=0;verticalLabelPosition=bottom;verticalAlign=top;align=center;html=1;fontSize=12;fontStyle=0;aspect=fixed;pointerEvents=1;shape=mxgraph.aws4.sensor;labelBackgroundColor=none;shadow=0;" vertex="1" parent="1">
          <mxGeometry x="440" y="497" width="70" height="78" as="geometry" />
        </mxCell>
        <mxCell id="7uoHD_4SpCBYZxMYRfOL-54" style="edgeStyle=orthogonalEdgeStyle;shape=connector;rounded=0;orthogonalLoop=1;jettySize=auto;html=1;labelBackgroundColor=default;strokeColor=#636363;strokeWidth=3;align=center;verticalAlign=middle;fontFamily=Helvetica;fontSize=11;fontColor=#292929;endArrow=classic;" edge="1" parent="1" source="7uoHD_4SpCBYZxMYRfOL-6" target="7uoHD_4SpCBYZxMYRfOL-13">
          <mxGeometry relative="1" as="geometry" />
        </mxCell>
        <mxCell id="7uoHD_4SpCBYZxMYRfOL-6" value="" style="sketch=0;outlineConnect=0;gradientColor=none;fillColor=#19916E;strokeColor=none;dashed=0;verticalLabelPosition=bottom;verticalAlign=top;align=center;html=1;aspect=fixed;pointerEvents=1;shape=mxgraph.aws4.desired_state;spacing=-1;spacingBottom=1;fontColor=#292929;" vertex="1" parent="1">
          <mxGeometry x="682" y="240" width="78" height="78" as="geometry" />
        </mxCell>
        <mxCell id="7uoHD_4SpCBYZxMYRfOL-34" style="edgeStyle=orthogonalEdgeStyle;shape=connector;rounded=0;orthogonalLoop=1;jettySize=auto;html=1;labelBackgroundColor=default;strokeColor=#636363;strokeWidth=3;align=center;verticalAlign=middle;fontFamily=Helvetica;fontSize=11;fontColor=#292929;endArrow=classic;" edge="1" parent="1" source="7uoHD_4SpCBYZxMYRfOL-8" target="7uoHD_4SpCBYZxMYRfOL-30">
          <mxGeometry relative="1" as="geometry" />
        </mxCell>
        <mxCell id="7uoHD_4SpCBYZxMYRfOL-8" value="" style="sketch=0;outlineConnect=0;fontColor=#292929;gradientColor=none;fillColor=#19916E;strokeColor=none;dashed=0;verticalLabelPosition=bottom;verticalAlign=top;align=center;html=1;fontSize=12;fontStyle=0;aspect=fixed;pointerEvents=1;shape=mxgraph.aws4.reported_state;" vertex="1" parent="1">
          <mxGeometry x="210" y="240" width="78" height="78" as="geometry" />
        </mxCell>
        <mxCell id="7uoHD_4SpCBYZxMYRfOL-18" style="edgeStyle=orthogonalEdgeStyle;shape=connector;rounded=0;orthogonalLoop=1;jettySize=auto;html=1;labelBackgroundColor=default;strokeColor=#636363;strokeWidth=3;align=center;verticalAlign=middle;fontFamily=Helvetica;fontSize=11;fontColor=#292929;endArrow=classic;" edge="1" parent="1" source="7uoHD_4SpCBYZxMYRfOL-13" target="7uoHD_4SpCBYZxMYRfOL-30">
          <mxGeometry relative="1" as="geometry">
            <mxPoint x="697.9999999999998" y="398.9999999999998" as="targetPoint" />
          </mxGeometry>
        </mxCell>
        <mxCell id="7uoHD_4SpCBYZxMYRfOL-25" value="POSTs serialized state" style="edgeLabel;html=1;align=center;verticalAlign=middle;resizable=0;points=[];fontSize=11;fontFamily=Helvetica;fontColor=#292929;labelBackgroundColor=none;" vertex="1" connectable="0" parent="7uoHD_4SpCBYZxMYRfOL-18">
          <mxGeometry x="0.1986" relative="1" as="geometry">
            <mxPoint x="19" y="-10" as="offset" />
          </mxGeometry>
        </mxCell>
        <mxCell id="7uoHD_4SpCBYZxMYRfOL-13" value="Lexical" style="sketch=0;outlineConnect=0;fontColor=#292929;gradientColor=none;fillColor=#636363;strokeColor=none;dashed=0;verticalLabelPosition=bottom;verticalAlign=top;align=center;html=1;fontSize=12;fontStyle=0;aspect=fixed;pointerEvents=1;shape=mxgraph.aws4.client;fontFamily=Helvetica;" vertex="1" parent="1">
          <mxGeometry x="682" y="362" width="78" height="76" as="geometry" />
        </mxCell>
        <mxCell id="7uoHD_4SpCBYZxMYRfOL-15" style="edgeStyle=orthogonalEdgeStyle;shape=connector;rounded=0;orthogonalLoop=1;jettySize=auto;html=1;labelBackgroundColor=default;strokeColor=#636363;strokeWidth=3;align=center;verticalAlign=middle;fontFamily=Helvetica;fontSize=11;fontColor=#292929;endArrow=none;startArrow=classic;startFill=1;endFill=0;" edge="1" parent="1" source="7uoHD_4SpCBYZxMYRfOL-14" target="7uoHD_4SpCBYZxMYRfOL-3">
          <mxGeometry relative="1" as="geometry">
            <Array as="points">
              <mxPoint x="249" y="530" />
            </Array>
          </mxGeometry>
        </mxCell>
        <mxCell id="7uoHD_4SpCBYZxMYRfOL-42" style="edgeStyle=orthogonalEdgeStyle;shape=connector;rounded=0;orthogonalLoop=1;jettySize=auto;html=1;labelBackgroundColor=default;strokeColor=#636363;strokeWidth=3;align=center;verticalAlign=middle;fontFamily=Helvetica;fontSize=11;fontColor=#292929;endArrow=classic;" edge="1" parent="1" source="7uoHD_4SpCBYZxMYRfOL-14" target="7uoHD_4SpCBYZxMYRfOL-8">
          <mxGeometry relative="1" as="geometry">
            <Array as="points">
              <mxPoint x="249" y="249" />
            </Array>
          </mxGeometry>
        </mxCell>
        <mxCell id="7uoHD_4SpCBYZxMYRfOL-51" style="edgeStyle=orthogonalEdgeStyle;shape=connector;rounded=0;orthogonalLoop=1;jettySize=auto;html=1;labelBackgroundColor=default;strokeColor=#636363;strokeWidth=3;align=center;verticalAlign=middle;fontFamily=Helvetica;fontSize=11;fontColor=#292929;endArrow=classic;" edge="1" parent="1" source="7uoHD_4SpCBYZxMYRfOL-20" target="7uoHD_4SpCBYZxMYRfOL-6">
          <mxGeometry relative="1" as="geometry" />
        </mxCell>
        <mxCell id="7uoHD_4SpCBYZxMYRfOL-20" value="User" style="sketch=0;outlineConnect=0;fontColor=#292929;gradientColor=none;fillColor=#636363;strokeColor=none;dashed=0;verticalLabelPosition=bottom;verticalAlign=top;align=center;html=1;fontSize=12;fontStyle=0;aspect=fixed;pointerEvents=1;shape=mxgraph.aws4.user;fontFamily=Helvetica;" vertex="1" parent="1">
          <mxGeometry x="521" y="244" width="70" height="70" as="geometry" />
        </mxCell>
        <mxCell id="7uoHD_4SpCBYZxMYRfOL-29" value="Pub/Sub &lt;br&gt;messages" style="edgeLabel;html=1;align=left;verticalAlign=middle;resizable=0;points=[];fontSize=11;fontFamily=Helvetica;fontColor=#292929;" vertex="1" connectable="0" parent="1">
          <mxGeometry x="252" y="470.0004744905548" as="geometry" />
        </mxCell>
        <mxCell id="7uoHD_4SpCBYZxMYRfOL-40" style="edgeStyle=orthogonalEdgeStyle;shape=connector;rounded=0;orthogonalLoop=1;jettySize=auto;html=1;labelBackgroundColor=default;strokeColor=#636363;strokeWidth=3;align=center;verticalAlign=middle;fontFamily=Helvetica;fontSize=11;fontColor=#292929;endArrow=classic;" edge="1" parent="1" source="7uoHD_4SpCBYZxMYRfOL-30" target="7uoHD_4SpCBYZxMYRfOL-14">
          <mxGeometry relative="1" as="geometry" />
        </mxCell>
        <mxCell id="7uoHD_4SpCBYZxMYRfOL-41" value="GETs the desired state&lt;br style=&quot;border-color: var(--border-color);&quot;&gt;and extracts the&lt;br style=&quot;border-color: var(--border-color);&quot;&gt;geographical context" style="edgeLabel;html=1;align=center;verticalAlign=middle;resizable=0;points=[];fontSize=11;fontFamily=Helvetica;fontColor=#292929;" vertex="1" connectable="0" parent="7uoHD_4SpCBYZxMYRfOL-40">
          <mxGeometry x="0.1405" y="-2" relative="1" as="geometry">
            <mxPoint x="13" y="-23" as="offset" />
          </mxGeometry>
        </mxCell>
        <mxCell id="7uoHD_4SpCBYZxMYRfOL-30" value="Service Responsable&lt;br&gt;of storing the application states" style="sketch=0;outlineConnect=0;fontColor=#292929;gradientColor=none;fillColor=#636363;strokeColor=none;dashed=0;verticalLabelPosition=bottom;verticalAlign=top;align=center;html=1;fontSize=12;fontStyle=0;aspect=fixed;pointerEvents=1;shape=mxgraph.aws4.servers;fontFamily=Helvetica;" vertex="1" parent="1">
          <mxGeometry x="436" y="361" width="78" height="78" as="geometry" />
        </mxCell>
        <mxCell id="7uoHD_4SpCBYZxMYRfOL-43" value="&lt;span style=&quot;font-family: Helvetica; font-size: 11px; font-style: normal; font-variant-ligatures: normal; font-variant-caps: normal; font-weight: 400; letter-spacing: normal; orphans: 2; text-indent: 0px; text-transform: none; widows: 2; word-spacing: 0px; -webkit-text-stroke-width: 0px; text-decoration-thickness: initial; text-decoration-style: initial; text-decoration-color: initial; float: none; display: inline !important;&quot;&gt;Establish&lt;/span&gt;&lt;br style=&quot;border-color: var(--border-color); font-family: Helvetica; font-size: 11px; font-style: normal; font-variant-ligatures: normal; font-variant-caps: normal; font-weight: 400; letter-spacing: normal; orphans: 2; text-indent: 0px; text-transform: none; widows: 2; word-spacing: 0px; -webkit-text-stroke-width: 0px; text-decoration-thickness: initial; text-decoration-style: initial; text-decoration-color: initial;&quot;&gt;&lt;span style=&quot;font-family: Helvetica; font-size: 11px; font-style: normal; font-variant-ligatures: normal; font-variant-caps: normal; font-weight: 400; letter-spacing: normal; orphans: 2; text-indent: 0px; text-transform: none; widows: 2; word-spacing: 0px; -webkit-text-stroke-width: 0px; text-decoration-thickness: initial; text-decoration-style: initial; text-decoration-color: initial; float: none; display: inline !important;&quot;&gt;Current State&lt;/span&gt;" style="text;whiteSpace=wrap;html=1;fontSize=11;fontFamily=Helvetica;fontColor=#292929;align=right;" vertex="1" parent="1">
          <mxGeometry x="173" y="324" width="70" height="39" as="geometry" />
        </mxCell>
        <mxCell id="7uoHD_4SpCBYZxMYRfOL-46" value="" style="group;fillColor=none;fontColor=#292929;" vertex="1" connectable="0" parent="1">
          <mxGeometry x="160" y="361" width="128" height="78" as="geometry" />
        </mxCell>
        <mxCell id="7uoHD_4SpCBYZxMYRfOL-14" value="" style="sketch=0;outlineConnect=0;fontColor=#292929;gradientColor=none;fillColor=#636363;strokeColor=none;dashed=0;verticalLabelPosition=bottom;verticalAlign=top;align=center;html=1;fontSize=12;fontStyle=0;aspect=fixed;pointerEvents=1;shape=mxgraph.aws4.servers;fontFamily=Helvetica;" vertex="1" parent="7uoHD_4SpCBYZxMYRfOL-46">
          <mxGeometry x="50" width="78" height="78" as="geometry" />
        </mxCell>
        <mxCell id="7uoHD_4SpCBYZxMYRfOL-45" value="&lt;span style=&quot;font-family: Helvetica; font-size: 12px; font-style: normal; font-variant-ligatures: normal; font-variant-caps: normal; font-weight: 400; letter-spacing: normal; orphans: 2; text-indent: 0px; text-transform: none; widows: 2; word-spacing: 0px; -webkit-text-stroke-width: 0px; background-color: rgb(251, 251, 251); text-decoration-thickness: initial; text-decoration-style: initial; text-decoration-color: initial; float: none; display: inline !important;&quot;&gt;Looker&lt;br&gt;Service&lt;br&gt;&lt;/span&gt;" style="text;whiteSpace=wrap;html=1;fontSize=11;fontFamily=Helvetica;fontColor=#292929;align=right;" vertex="1" parent="7uoHD_4SpCBYZxMYRfOL-46">
          <mxGeometry y="19" width="50" height="40" as="geometry" />
        </mxCell>
        <mxCell id="7uoHD_4SpCBYZxMYRfOL-48" value="Provides&lt;br&gt;Desired State" style="edgeLabel;html=1;align=center;verticalAlign=middle;resizable=0;points=[];fontSize=11;fontFamily=Helvetica;fontColor=#292929;labelBackgroundColor=none;" vertex="1" connectable="0" parent="1">
          <mxGeometry x="630" y="258.0044827586207" as="geometry" />
        </mxCell>
        <mxCell id="7uoHD_4SpCBYZxMYRfOL-56" value="&lt;span style=&quot;font-family: Helvetica; font-size: 12px; font-style: normal; font-variant-ligatures: normal; font-variant-caps: normal; font-weight: 400; letter-spacing: normal; orphans: 2; text-indent: 0px; text-transform: none; widows: 2; word-spacing: 0px; -webkit-text-stroke-width: 0px; background-color: rgb(251, 251, 251); text-decoration-thickness: initial; text-decoration-style: initial; text-decoration-color: initial; float: none; display: inline !important;&quot;&gt;Desired State&lt;/span&gt;" style="text;whiteSpace=wrap;html=1;fontSize=11;fontFamily=Helvetica;fontColor=#292929;align=right;" vertex="1" parent="1">
          <mxGeometry x="664" y="314" width="50" height="40" as="geometry" />
        </mxCell>
        <mxCell id="7uoHD_4SpCBYZxMYRfOL-57" value="&lt;span style=&quot;font-family: Helvetica; font-size: 12px; font-style: normal; font-variant-ligatures: normal; font-variant-caps: normal; font-weight: 400; letter-spacing: normal; orphans: 2; text-align: center; text-indent: 0px; text-transform: none; widows: 2; word-spacing: 0px; -webkit-text-stroke-width: 0px; background-color: rgb(251, 251, 251); text-decoration-thickness: initial; text-decoration-style: initial; text-decoration-color: initial; float: none; display: inline !important;&quot;&gt;Observed&lt;br&gt;State&lt;/span&gt;" style="text;whiteSpace=wrap;html=1;fontSize=11;fontFamily=Helvetica;fontColor=#292929;" vertex="1" parent="1">
          <mxGeometry x="288" y="238" width="50" height="40" as="geometry" />
        </mxCell>
        <mxCell id="7uoHD_4SpCBYZxMYRfOL-59" value="&amp;nbsp; Smart Campus UIS&amp;nbsp;&amp;nbsp;" style="text;html=1;align=center;verticalAlign=top;resizable=0;points=[];autosize=1;strokeColor=none;fillColor=none;fontSize=11;fontFamily=Helvetica;fontColor=#292929;spacing=0;labelBackgroundColor=default;" vertex="1" parent="1">
          <mxGeometry x="295" y="594" width="130" height="20" as="geometry" />
        </mxCell>
      </root>
    </mxGraphModel>
  </diagram>
</mxfile>
